<?xml version="1.0" encoding="utf-8"?>
<!-- Generator: Adobe Illustrator 22.1.0, SVG Export Plug-In . SVG Version: 6.00 Build 0)  -->
<svg version="1.1" id="Layer_1" xmlns="http://www.w3.org/2000/svg" xmlns:xlink="http://www.w3.org/1999/xlink" x="0px" y="0px"
	 viewBox="0 0 160 160" enable-background="new 0 0 160 160" xml:space="preserve">
<rect width="163" height="163"/>
<g>
	<path fill="#A67C52" d="M52.3,52.8H64v0.7h-2V69c0,3.2-0.7,5.6-2.2,7.1s-3.7,2.2-6.6,2.2c-1.9,0-3.5-0.4-4.6-1.1
		c-1.1-0.7-1.7-1.8-1.7-3.1c0-1,0.3-1.8,0.9-2.4c0.6-0.6,1.4-0.9,2.4-0.9c1,0,1.7,0.3,2.2,0.8c0.5,0.5,0.7,1.1,0.7,1.8
		c0,0.7-0.1,1.4-0.4,2.1h-1.4c-0.2,0.4-0.3,0.7-0.3,1c0,0.3,0.2,0.6,0.5,0.8c0.3,0.2,0.7,0.3,1.3,0.3c1,0,1.6-0.4,1.9-1.1
		c0.3-0.8,0.4-2.4,0.4-4.9V53.5h-2.7V52.8z"/>
	<path fill="#A67C52" d="M72.7,69.5h1v-2.8c0-2.3-0.1-3.8-0.4-4.6S72.6,61,71.9,61c-0.4,0-0.8,0.1-1.2,0.3c-0.3,0.2-0.5,0.5-0.5,0.9
		s0.1,0.8,0.2,1.2h0.9c0.2,0.5,0.3,1.1,0.3,1.8c0,0.7-0.3,1.3-0.9,1.8c-0.6,0.5-1.4,0.8-2.3,0.8c-2.1,0-3.1-1-3.1-3
		c0-3,2.5-4.4,7.5-4.4c2.9,0,4.8,0.5,5.9,1.5c1.1,1,1.6,2.8,1.6,5.3v7.3c0,1.2,0.3,1.9,1,1.9c0.8,0,1.3-1.2,1.4-3.7l0.5,0
		c-0.1,2.1-0.5,3.6-1.2,4.4s-1.8,1.2-3.4,1.2c-2.9,0-4.5-0.9-5-2.7c-0.3,0.9-0.8,1.6-1.4,2c-0.6,0.4-1.5,0.6-2.7,0.6
		c-3.6,0-5.3-1.5-5.3-4.4c0-1.7,0.7-2.9,2-3.5C67.8,69.9,69.9,69.5,72.7,69.5z M71.5,76.4c0.1,0.4,0.4,0.5,0.8,0.5
		c0.4,0,0.7-0.3,1-0.9c0.3-0.6,0.5-1.5,0.5-2.5v-3.3h-0.3c-1.5,0-2.2,1.1-2.2,3.3V74C71.3,75.2,71.3,76,71.5,76.4z"/>
	<path fill="#A67C52" d="M83.8,60.9h8.7v3.3c0.8-2.4,2.5-3.7,5.2-3.7c2.7,0,4.3,1.3,4.9,3.9c0.8-2.6,2.6-3.9,5.3-3.9
		c3.5,0,5.3,2,5.3,6v10.8h2V78h-10v-0.6h1.3V65.7c0-1.8-0.2-2.9-0.5-3.2c-0.1-0.1-0.3-0.2-0.6-0.2c-0.7,0-1.3,0.5-1.8,1.4
		c-0.5,0.9-0.8,2.1-0.8,3.6v10.2h1.3V78h-9.3v-0.6h1.3V65.7c0-1.8-0.2-2.9-0.5-3.2c-0.1-0.1-0.3-0.2-0.6-0.2c-0.7,0-1.3,0.5-1.8,1.5
		s-0.8,2.2-0.8,3.7v9.9h1.3V78h-10v-0.6h2V61.5h-2V60.9z"/>
	<path fill="#A67C52" d="M118.3,76c-1.5-1.6-2.3-3.8-2.3-6.7c0-2.8,0.9-5,2.6-6.5c1.7-1.5,4-2.3,6.6-2.3c5.4,0,8.1,2.7,7.8,8.2
		h-10.2v1.4c0,2.4,0.3,4.1,0.9,5.3c0.6,1.2,1.6,1.8,3.1,1.8c2.8,0,4.6-1.5,5.5-4.5l0.6,0.1c-0.5,1.7-1.3,3.1-2.5,4
		c-1.2,1-3,1.4-5.3,1.4C122.2,78.4,119.9,77.6,118.3,76z M123,68h3.7v-1.8c0-1.9-0.1-3.3-0.3-4c-0.2-0.7-0.7-1.1-1.4-1.1
		c-0.7,0-1.2,0.4-1.5,1.1c-0.3,0.8-0.5,2.1-0.5,3.9V68z"/>
	<path fill="#A67C52" d="M134.8,78.4v-6.4h0.4c0.6,2.1,1.5,3.6,2.5,4.4c1.1,0.8,2.4,1.3,4,1.3c2.4,0,3.7-0.8,3.7-2.3
		c0-0.7-0.3-1.2-0.9-1.5c-0.9-0.5-2.1-0.9-3.6-1.2c-1.6-0.4-3-1-4.1-1.7c-1.3-0.9-2-2.2-2-4.1s0.6-3.4,1.7-4.5
		c1.2-1.1,2.7-1.7,4.6-1.7c1.2,0,2.4,0.3,3.6,0.8c0.5,0.2,0.8,0.3,1,0.3s0.4-0.1,0.6-0.3s0.4-0.5,0.6-0.9h0.4v5.5h-0.4
		c-1.2-3.1-3.1-4.7-5.7-4.7c-1.1,0-2,0.2-2.5,0.6c-0.6,0.4-0.8,0.9-0.8,1.5c0,0.4,0.1,0.6,0.3,0.8c0.2,0.2,0.3,0.4,0.4,0.5
		c0.1,0.1,0.3,0.2,0.5,0.3c0.2,0.1,0.4,0.2,0.5,0.3c0.1,0.1,0.4,0.1,0.7,0.2c0.3,0.1,0.5,0.2,0.7,0.2c1.6,0.4,2.8,0.8,3.5,1.1
		c0.7,0.3,1.4,0.7,2.1,1.1c1.3,0.9,2,2.4,2,4.4c0,2-0.6,3.6-1.8,4.6c-1.2,1-2.8,1.6-4.9,1.6c-1.5,0-2.9-0.3-4.3-1
		c-0.3-0.2-0.5-0.3-0.7-0.3c-0.5,0-1,0.4-1.5,1.3H134.8z"/>
</g>
<g>
	<path fill="#E6E6E6" d="M29,87.7c0,1.1-0.2,2-0.6,3c-0.8,1.7-2.2,2.9-4.2,3.6c-0.7,0.2-1.3,0.4-1.8,0.4c-1.5,0-2.8-0.3-3.9-0.8
		v-0.4c1.8,0.4,3.4,0.2,4.9-0.6c1.3-0.7,2.2-1.8,2.7-3.3c0.1-0.5,0.2-0.9,0.2-1.4c0-0.4,0-0.7,0-0.8c0-1.7-0.5-3-1.3-4
		c-0.8-1-2-1.5-3.5-1.5h-4.1v21.5c0,0.6,0.3,1.2,0.7,1.6c0.4,0.4,1,0.7,1.6,0.7H20v0.4h-7.9v-0.4h0.5c0.6,0,1.2-0.2,1.6-0.7
		c0.4-0.4,0.7-1,0.7-1.6V83.2c-0.1-0.6-0.3-1.1-0.8-1.5c-0.4-0.4-0.9-0.6-1.5-0.6h-0.4l0-0.4h9.4c2.3,0,4.1,0.6,5.4,1.9
		C28.3,83.9,29,85.6,29,87.7z"/>
	<path fill="#E6E6E6" d="M51.3,105.6h0.3v0.4h-7.4v-0.4h0.3c0.5,0,0.8-0.2,1-0.5c0.2-0.3,0.4-0.6,0.4-0.9c0-0.3,0-0.5-0.1-0.8
		l-2-4.8h-9.1l-2,4.7c-0.1,0.3-0.2,0.6-0.2,0.9c0,0.3,0.1,0.6,0.4,0.9c0.2,0.3,0.6,0.5,1.1,0.5h0.3v0.4h-6.9v-0.4h0.3
		c0.5,0,1-0.2,1.5-0.5c0.5-0.3,0.9-0.9,1.3-1.6c5.3-11.2,8-17.1,8.2-17.6c0.4-1,0.6-1.7,0.6-2h0.3l8.9,19.7
		C49.2,104.9,50.1,105.6,51.3,105.6z M35.1,97.6h8.2l-4-9.9L35.1,97.6z"/>
	<path fill="#E6E6E6" d="M60.5,85.4v18.3c0,0.7,0.4,1.3,1.1,1.7c0.3,0.2,0.7,0.3,1,0.3H63v0.4h-7.4v-0.4H56c0.6,0,1.1-0.2,1.5-0.6
		c0.4-0.4,0.6-0.8,0.6-1.4V85.4h-6.5c-0.6,0-1,0.2-1.3,0.5c-0.3,0.4-0.5,0.8-0.5,1.3v0.6h-0.4v-4.1c0.5,0.2,1.2,0.3,2,0.4
		c0.9,0.1,1.5,0.1,2,0.1h11.7c1.7,0,3.1-0.2,4-0.6v4.1h-0.4v-0.6c0-0.5-0.2-0.9-0.5-1.3c-0.3-0.4-0.8-0.5-1.3-0.5H60.5z"/>
	<path fill="#E6E6E6" d="M78.4,85.5h-1.9v18.2c0,0.7,0.4,1.3,1,1.7c0.3,0.2,0.7,0.3,1,0.3H79l0,0.4h-7.4v-0.4h0.5
		c0.6,0,1-0.2,1.4-0.6c0.4-0.4,0.6-0.8,0.6-1.4V86.6c0-0.5-0.2-1-0.6-1.3c-0.4-0.4-0.9-0.5-1.4-0.5h-0.5v-0.4h9c2.3,0,4,0.5,5.3,1.5
		c1.3,1,2,2.4,2,4.1c0,1.7-0.5,3.1-1.6,4.2c-1.1,1.1-2.4,1.8-4,1.9c0.8,0.3,1.7,1.3,2.8,2.8c0,0,0.4,0.5,1.2,1.6
		c0.9,1.1,1.5,1.9,2.1,2.5c0.5,0.6,0.9,1,1.3,1.4c0.9,0.8,1.9,1.3,3.1,1.3v0.4h-1.1c-1.9,0-3.4-0.4-4.5-1.1
		c-0.8-0.6-1.6-1.2-2.2-2.1c-0.1-0.2-0.8-1-1.8-2.5c-1.1-1.5-1.6-2.3-1.7-2.4c-1.3-1.6-2.5-2.4-3.6-2.4v-0.4c2.8,0,4.5-0.1,5.1-0.4
		c0.8-0.4,1.3-0.8,1.6-1.3c0.6-1,0.9-2,0.9-3.2c0-1.5-0.4-2.6-1.3-3.4c-0.9-0.8-2-1.2-3.5-1.3C80,85.5,79.2,85.5,78.4,85.5z"/>
	<path fill="#E6E6E6" d="M94.7,105.6c0.6,0,1.2-0.2,1.7-0.6c0.5-0.4,0.7-0.8,0.7-1.4v-17c0-0.5-0.2-1-0.7-1.4
		c-0.5-0.4-1.1-0.6-1.7-0.6h-0.5v-0.4h8.1v0.4h-0.5c-0.6,0-1.2,0.2-1.7,0.5c-0.5,0.4-0.7,0.8-0.8,1.3v17.1c0,0.5,0.3,1,0.8,1.4
		c0.5,0.4,1,0.6,1.7,0.6h0.5l0,0.4h-8.2v-0.4H94.7z"/>
	<path fill="#E6E6E6" d="M108.8,103.4c-2.1-2-3.2-4.8-3.2-8.3c0-3.5,1.1-6.2,3.2-8.3c2.1-2,5-3,8.7-3c1.5,0,3,0.2,4.5,0.6
		c1.5,0.4,2.8,0.9,3.9,1.6l0.8,5.1h-0.3c-1-4.1-4-6.2-8.9-6.2c-2.9,0-5.1,0.9-6.8,2.7c-1.7,1.8-2.5,4.3-2.5,7.5
		c0,2.1,0.4,3.9,1.1,5.4c0.7,1.5,1.8,2.7,3.2,3.5c1.4,0.8,3.1,1.3,4.9,1.3c1.9,0,3.5-0.3,4.9-0.8c1.4-0.6,2.6-1.5,3.5-2.8
		c0.9-1.3,1.4-2.9,1.6-4.8h0.3l-0.4,4.9c-0.9,1.4-2.3,2.6-4.1,3.4c-1.8,0.8-3.7,1.2-5.8,1.2C113.8,106.5,110.9,105.5,108.8,103.4z"
		/>
	<path fill="#E6E6E6" d="M138.2,105.6h0.4v0.4h-7.4v-0.4h0.4c0.6,0,1.1-0.2,1.5-0.6c0.4-0.4,0.6-0.8,0.6-1.4v-17
		c0-0.5-0.2-1-0.6-1.4c-0.4-0.4-0.9-0.6-1.5-0.6h-0.4v-0.4h7.4v0.4h-0.4c-0.8,0-1.4,0.3-1.8,0.9c-0.2,0.3-0.3,0.6-0.3,1v17.1
		c0,0.5,0.2,1,0.6,1.4C137.1,105.5,137.6,105.6,138.2,105.6z M151.8,106h-1.3c-2.4,0-4.1-0.7-5.3-2.1l-7.9-8.7l7.7-9.1
		c0.3-0.3,0.3-0.7,0.1-1c-0.2-0.3-0.5-0.5-0.9-0.5h-0.3v-0.4h7.3v0.4h-0.1c-1.5,0-2.6,0.4-3.5,1.3l-7.8,8.4l8.9,9.7
		c0.4,0.5,0.9,0.9,1.3,1.1c0.5,0.2,1.1,0.3,1.8,0.4V106z"/>
</g>
<g>
</g>
<g>
</g>
<g>
</g>
<g>
</g>
<g>
</g>
<g>
</g>
<g>
</g>
<g>
</g>
<g>
</g>
<g>
</g>
<g>
</g>
<g>
</g>
<g>
</g>
<g>
</g>
<g>
</g>
</svg>
